# Object Export From Tinkercad Server 2015

mtllib obj.mtl

o obj_0
v 9.001 		66.301 		39.7485
v 8.825 		66.388 		39.7485
v 6.76 		65.196 		-0.2515
v 8.639 		66.451 		39.7485
v 6.748 		65 		-0.2515
v 8.446 		66.49 		39.7485
v 6.76 		64.804 		-0.2515
v 8.25 		66.502 		39.7485
v 8.054 		66.49 		39.7485
v 7.861 		66.451 		39.7485
v 6.799 		64.611 		-0.2515
v 6.862 		64.425 		-0.2515
v 7.675 		66.388 		39.7485
v 7.499 		66.301 		39.7485
v 7.335 		66.192 		39.7485
v 7.188 		66.062 		39.7485
v 7.058 		65.915 		39.7485
v 6.949 		65.751 		39.7485
v 6.862 		65.575 		39.7485
v 6.799 		65.389 		39.7485
v 6.76 		65.196 		39.7485
v 6.748 		65 		39.7485
v 6.949 		64.249 		-0.2515
v 7.058 		64.085 		-0.2515
v 7.188 		63.938 		-0.2515
v 6.76 		64.804 		39.7485
v 6.799 		64.611 		39.7485
v 6.862 		64.425 		39.7485
v 6.949 		64.249 		39.7485
v 7.058 		64.085 		39.7485
v 7.188 		63.938 		39.7485
v 7.335 		63.808 		-0.2515
v 8.446 		63.51 		-0.2515
v 8.25 		63.497 		-0.2515
v 8.639 		63.549 		-0.2515
v 8.825 		63.612 		-0.2515
v 9.001 		63.699 		-0.2515
v 7.335 		63.808 		39.7485
v 8.446 		63.51 		39.7485
v 8.25 		63.497 		39.7485
v 8.639 		63.549 		39.7485
v 8.825 		63.612 		39.7485
v 9.001 		63.699 		39.7485
v 7.499 		63.699 		39.7485
v 7.499 		63.699 		-0.2515
v 7.675 		63.612 		39.7485
v 7.861 		63.549 		39.7485
v 8.054 		63.51 		39.7485
v 7.675 		63.612 		-0.2515
v 7.861 		63.549 		-0.2515
v 8.054 		63.51 		-0.2515
v 9.442 		65.915 		-0.2515
v 9.312 		66.062 		-0.2515
v 9.165 		66.192 		-0.2515
v 9.312 		63.938 		-0.2515
v 9.165 		63.808 		-0.2515
v 9.442 		65.915 		39.7485
v 9.442 		64.085 		-0.2515
v 9.312 		66.062 		39.7485
v 9.551 		64.249 		-0.2515
v 9.638 		64.425 		-0.2515
v 9.701 		64.611 		-0.2515
v 9.74 		64.804 		-0.2515
v 9.753 		65 		-0.2515
v 9.74 		65.196 		-0.2515
v 9.701 		65.389 		-0.2515
v 9.638 		65.575 		-0.2515
v 9.551 		65.751 		-0.2515
v 9.165 		66.192 		39.7485
v 9.312 		63.938 		39.7485
v 9.165 		63.808 		39.7485
v 9.442 		64.085 		39.7485
v 9.551 		64.249 		39.7485
v 9.638 		64.425 		39.7485
v 9.701 		64.611 		39.7485
v 9.74 		64.804 		39.7485
v 9.753 		65 		39.7485
v 9.74 		65.196 		39.7485
v 9.701 		65.389 		39.7485
v 9.638 		65.575 		39.7485
v 9.551 		65.751 		39.7485
v 7.003 		48.5 		39.7485
v 6.874 		46.542 		39.7485
v 6.874 		50.458 		39.7485
v 12 		33.497 		39.7485
v 4.993 		40.999 		39.7485
v -10.7735 		63.2118 		39.7485
v -9.958 		63.374 		39.7485
v -10.8445 		63.316 		39.7485
v -8 		63.502 		39.7485
v -10.9712 		63.502 		39.7485
v -10.9678 		63.497 		39.7485
v -6.042 		63.374 		39.7485
v -4.117 		62.991 		39.7485
v -2.259 		62.361 		39.7485
v -0.499 		61.493 		39.7485
v 1.133 		60.402 		39.7485
v 2.608 		59.108 		39.7485
v 3.902 		57.633 		39.7485
v 4.993 		56.001 		39.7485
v 6.491 		44.617 		39.7485
v 5.861 		42.759 		39.7485
v 5.861 		54.241 		39.7485
v 6.491 		52.383 		39.7485
v 12 		68.5 		39.7485
v -14.3765 		68.5 		39.7485
v 9.001 		33.301 		39.7485
v 8.825 		33.388 		39.7485
v 8.639 		33.451 		39.7485
v 8.446 		33.49 		39.7485
v 8.25 		33.502 		39.7485
v 8.054 		33.49 		39.7485
v 7.861 		33.451 		39.7485
v 7.675 		33.388 		39.7485
v 7.499 		33.301 		39.7485
v 7.335 		33.192 		39.7485
v 6.748 		33.502 		39.7485
v 7.188 		33.062 		39.7485
v 7.058 		32.915 		39.7485
v 6.949 		32.751 		39.7485
v 6.862 		32.575 		39.7485
v 6.799 		32.389 		39.7485
v 6.76 		32.196 		39.7485
v 6.748 		32 		39.7485
v 6.76 		31.804 		39.7485
v 6.799 		31.611 		39.7485
v 6.862 		31.425 		39.7485
v 6.949 		31.249 		39.7485
v 7.058 		31.085 		39.7485
v 8.446 		30.51 		39.7485
v 8.25 		30.497 		39.7485
v 8.639 		30.549 		39.7485
v 8.825 		30.612 		39.7485
v 9.001 		30.699 		39.7485
v 7.188 		30.938 		39.7485
v 7.335 		30.808 		39.7485
v 7.499 		30.699 		39.7485
v 7.675 		30.612 		39.7485
v 7.861 		30.549 		39.7485
v 8.054 		30.51 		39.7485
v 9.442 		31.085 		39.7485
v 9.551 		31.249 		39.7485
v 9.638 		31.425 		39.7485
v 9.701 		31.611 		39.7485
v 9.74 		31.804 		39.7485
v 9.753 		32 		39.7485
v 9.74 		32.196 		39.7485
v 9.701 		32.389 		39.7485
v 9.638 		32.575 		39.7485
v 9.551 		32.751 		39.7485
v 9.442 		32.915 		39.7485
v 9.312 		33.062 		39.7485
v 9.165 		33.192 		39.7485
v 9.165 		30.808 		39.7485
v 9.312 		30.938 		39.7485
v 12 		28.5 		39.7485
v -8 		33.497 		39.7485
v -10.9719 		33.497 		39.7485
v -10.9685 		33.502 		39.7485
v -14.3765 		28.5 		39.7485
v 3.902 		39.367 		39.7485
v 2.608 		37.892 		39.7485
v 1.133 		36.598 		39.7485
v -0.499 		35.507 		39.7485
v -2.259 		34.639 		39.7485
v -4.117 		34.009 		39.7485
v -6.042 		33.626 		39.7485
v -9.958 		33.626 		39.7485
v -10.8595 		33.662 		39.7485
v -10.7735 		33.7882 		39.7485
v -23.75 		66.502 		39.7485
v -23.946 		66.49 		39.7485
v -24.139 		66.451 		39.7485
v -24.325 		66.388 		39.7485
v -24.501 		66.301 		39.7485
v -24.665 		66.192 		39.7485
v -24.812 		66.062 		39.7485
v -24.942 		65.915 		39.7485
v -25.051 		65.751 		39.7485
v -25.138 		65.575 		39.7485
v -25.201 		65.389 		39.7485
v -25.24 		65.196 		39.7485
v -25.252 		65 		39.7485
v -25.24 		64.804 		39.7485
v -25.201 		64.611 		39.7485
v -25.138 		64.425 		39.7485
v -25.051 		64.249 		39.7485
v -24.942 		64.085 		39.7485
v -24.812 		63.938 		39.7485
v -24.665 		63.808 		39.7485
v -23.75 		63.497 		39.7485
v -24.501 		63.699 		39.7485
v -24.325 		63.612 		39.7485
v -24.139 		63.549 		39.7485
v -23.946 		63.51 		39.7485
v -22.558 		65.915 		39.7485
v -22.688 		66.062 		39.7485
v -22.835 		66.192 		39.7485
v -22.999 		66.301 		39.7485
v -23.175 		66.388 		39.7485
v -23.361 		66.451 		39.7485
v -23.554 		66.49 		39.7485
v -22.688 		63.938 		39.7485
v -22.835 		63.808 		39.7485
v -22.558 		64.085 		39.7485
v -22.449 		64.249 		39.7485
v -22.362 		64.425 		39.7485
v -22.299 		64.611 		39.7485
v -22.26 		64.804 		39.7485
v -22.247 		65 		39.7485
v -22.26 		65.196 		39.7485
v -22.299 		65.389 		39.7485
v -22.362 		65.575 		39.7485
v -22.449 		65.751 		39.7485
v -23.554 		63.51 		39.7485
v -23.361 		63.549 		39.7485
v -23.175 		63.612 		39.7485
v -22.999 		63.699 		39.7485
v -23.75 		33.502 		39.7485
v -23.946 		33.49 		39.7485
v -24.139 		33.451 		39.7485
v -24.325 		33.388 		39.7485
v -24.501 		33.301 		39.7485
v -24.665 		33.192 		39.7485
v -24.812 		33.062 		39.7485
v -24.942 		32.915 		39.7485
v -25.051 		32.751 		39.7485
v -25.138 		32.575 		39.7485
v -25.201 		32.389 		39.7485
v -25.24 		32.196 		39.7485
v -25.252 		32 		39.7485
v -25.24 		31.804 		39.7485
v -25.201 		31.611 		39.7485
v -25.138 		31.425 		39.7485
v -25.051 		31.249 		39.7485
v -24.942 		31.085 		39.7485
v -23.75 		30.497 		39.7485
v -24.812 		30.938 		39.7485
v -24.665 		30.808 		39.7485
v -24.501 		30.699 		39.7485
v -24.325 		30.612 		39.7485
v -24.139 		30.549 		39.7485
v -23.946 		30.51 		39.7485
v -22.835 		33.192 		39.7485
v -22.999 		33.301 		39.7485
v -23.175 		33.388 		39.7485
v -23.361 		33.451 		39.7485
v -23.554 		33.49 		39.7485
v -22.558 		31.085 		39.7485
v -22.449 		31.249 		39.7485
v -22.362 		31.425 		39.7485
v -22.299 		31.611 		39.7485
v -22.26 		31.804 		39.7485
v -22.247 		32 		39.7485
v -22.26 		32.196 		39.7485
v -22.299 		32.389 		39.7485
v -22.362 		32.575 		39.7485
v -22.449 		32.751 		39.7485
v -22.558 		32.915 		39.7485
v -22.688 		33.062 		39.7485
v -23.554 		30.51 		39.7485
v -23.361 		30.549 		39.7485
v -23.175 		30.612 		39.7485
v -22.999 		30.699 		39.7485
v -22.835 		30.808 		39.7485
v -22.688 		30.938 		39.7485
v -20.993 		56.001 		39.7485
v -19.902 		57.633 		39.7485
v -18.608 		59.108 		39.7485
v -17.133 		60.402 		39.7485
v -15.501 		61.493 		39.7485
v -13.741 		62.361 		39.7485
v -11.883 		62.991 		39.7485
v -19.902 		39.367 		39.7485
v -20.993 		40.999 		39.7485
v -21.861 		42.759 		39.7485
v -22.491 		44.617 		39.7485
v -22.874 		46.542 		39.7485
v -23.002 		48.5 		39.7485
v -22.874 		50.458 		39.7485
v -22.491 		52.383 		39.7485
v -21.861 		54.241 		39.7485
v -11.883 		34.009 		39.7485
v -13.741 		34.639 		39.7485
v -15.501 		35.507 		39.7485
v -17.133 		36.598 		39.7485
v -18.608 		37.892 		39.7485
v -28.003 		8.5 		39.7485
v -28.003 		66.502 		39.7485
v -28.003 		88.5 		39.7485
v 9.001 		66.301 		-0.2515
v 8.825 		66.388 		-0.2515
v 8.639 		66.451 		-0.2515
v 8.446 		66.49 		-0.2515
v 8.25 		66.502 		-0.2515
v 8.054 		66.49 		-0.2515
v 7.861 		66.451 		-0.2515
v 7.675 		66.388 		-0.2515
v 7.499 		66.301 		-0.2515
v 7.335 		66.192 		-0.2515
v 7.188 		66.062 		-0.2515
v 7.058 		65.915 		-0.2515
v 6.949 		65.751 		-0.2515
v 6.862 		65.575 		-0.2515
v 6.799 		65.389 		-0.2515
v 12 		63.497 		-0.2515
v 6.874 		46.542 		-0.2515
v 7.003 		48.5 		-0.2515
v 6.748 		37.495 		-0.2515
v 6.874 		50.458 		-0.2515
v 4.993 		40.999 		-0.2515
v -10.8445 		63.316 		-0.2515
v -9.958 		63.374 		-0.2515
v -10.7735 		63.2118 		-0.2515
v -10.9712 		63.502 		-0.2515
v -8 		63.502 		-0.2515
v -10.9678 		63.497 		-0.2515
v -6.042 		63.374 		-0.2515
v -4.117 		62.991 		-0.2515
v -2.259 		62.361 		-0.2515
v -0.499 		61.493 		-0.2515
v 1.133 		60.402 		-0.2515
v 2.608 		59.108 		-0.2515
v 3.902 		57.633 		-0.2515
v 4.993 		56.001 		-0.2515
v 5.018 		63.502 		-0.2515
v 6.491 		44.617 		-0.2515
v 5.861 		42.759 		-0.2515
v -23.75 		33.502 		-0.2515
v -23.946 		33.49 		-0.2515
v 5.861 		54.241 		-0.2515
v 6.491 		52.383 		-0.2515
v -24.139 		33.451 		-0.2515
v -24.325 		33.388 		-0.2515
v -24.501 		33.301 		-0.2515
v -24.665 		33.192 		-0.2515
v -14.3765 		68.5 		-0.2515
v 12 		68.5 		-0.2515
v -24.812 		33.062 		-0.2515
v 9.001 		33.301 		-0.2515
v -24.942 		32.915 		-0.2515
v 8.825 		33.388 		-0.2515
v -25.051 		32.751 		-0.2515
v 8.639 		33.451 		-0.2515
v 8.446 		33.49 		-0.2515
v -25.138 		32.575 		-0.2515
v 8.25 		33.502 		-0.2515
v -25.201 		32.389 		-0.2515
v 8.054 		33.49 		-0.2515
v -25.24 		32.196 		-0.2515
v 7.861 		33.451 		-0.2515
v 7.675 		33.388 		-0.2515
v -25.252 		32 		-0.2515
v 7.499 		33.301 		-0.2515
v 7.335 		33.192 		-0.2515
v -25.24 		31.804 		-0.2515
v -25.201 		31.611 		-0.2515
v 7.188 		33.062 		-0.2515
v -25.138 		31.425 		-0.2515
v 7.058 		32.915 		-0.2515
v -25.051 		31.249 		-0.2515
v 6.949 		32.751 		-0.2515
v 6.862 		32.575 		-0.2515
v -24.942 		31.085 		-0.2515
v 6.799 		32.389 		-0.2515
v 6.76 		32.196 		-0.2515
v 6.748 		32 		-0.2515
v -23.75 		30.497 		-0.2515
v 6.76 		31.804 		-0.2515
v -24.812 		30.938 		-0.2515
v 6.799 		31.611 		-0.2515
v -24.665 		30.808 		-0.2515
v 6.862 		31.425 		-0.2515
v 6.949 		31.249 		-0.2515
v -24.501 		30.699 		-0.2515
v 7.058 		31.085 		-0.2515
v -24.325 		30.612 		-0.2515
v -24.139 		30.549 		-0.2515
v 8.25 		30.497 		-0.2515
v 8.446 		30.51 		-0.2515
v -23.946 		30.51 		-0.2515
v 8.639 		30.549 		-0.2515
v 8.825 		30.612 		-0.2515
v 9.001 		30.699 		-0.2515
v -22.835 		33.192 		-0.2515
v -22.999 		33.301 		-0.2515
v 7.188 		30.938 		-0.2515
v -23.175 		33.388 		-0.2515
v 7.335 		30.808 		-0.2515
v -23.361 		33.451 		-0.2515
v 7.499 		30.699 		-0.2515
v -23.554 		33.49 		-0.2515
v 7.675 		30.612 		-0.2515
v 7.861 		30.549 		-0.2515
v 8.054 		30.51 		-0.2515
v -22.558 		31.085 		-0.2515
v 9.442 		31.085 		-0.2515
v 9.551 		31.249 		-0.2515
v 9.638 		31.425 		-0.2515
v 9.701 		31.611 		-0.2515
v 9.74 		31.804 		-0.2515
v 9.753 		32 		-0.2515
v 9.74 		32.196 		-0.2515
v 9.701 		32.389 		-0.2515
v 9.638 		32.575 		-0.2515
v 9.551 		32.751 		-0.2515
v 9.442 		32.915 		-0.2515
v 9.312 		33.062 		-0.2515
v 9.165 		33.192 		-0.2515
v 9.165 		30.808 		-0.2515
v 9.312 		30.938 		-0.2515
v -22.449 		31.249 		-0.2515
v -22.362 		31.425 		-0.2515
v 12 		28.5 		-0.2515
v -22.299 		31.611 		-0.2515
v 5.018 		33.497 		-0.2515
v -8 		33.497 		-0.2515
v -22.26 		31.804 		-0.2515
v -22.247 		32 		-0.2515
v -10.9719 		33.497 		-0.2515
v -10.9685 		33.502 		-0.2515
v -22.26 		32.196 		-0.2515
v -22.299 		32.389 		-0.2515
v -14.3765 		28.5 		-0.2515
v 3.902 		39.367 		-0.2515
v 2.608 		37.892 		-0.2515
v 1.133 		36.598 		-0.2515
v -0.499 		35.507 		-0.2515
v -22.362 		32.575 		-0.2515
v -2.259 		34.639 		-0.2515
v -4.117 		34.009 		-0.2515
v -6.042 		33.626 		-0.2515
v -9.958 		33.626 		-0.2515
v -10.7735 		33.7882 		-0.2515
v -10.8595 		33.662 		-0.2515
v -23.75 		66.502 		-0.2515
v -23.946 		66.49 		-0.2515
v -24.139 		66.451 		-0.2515
v -24.325 		66.388 		-0.2515
v -24.501 		66.301 		-0.2515
v -24.665 		66.192 		-0.2515
v -24.812 		66.062 		-0.2515
v -24.942 		65.915 		-0.2515
v -25.051 		65.751 		-0.2515
v -25.138 		65.575 		-0.2515
v -25.201 		65.389 		-0.2515
v -25.24 		65.196 		-0.2515
v -25.252 		65 		-0.2515
v -25.24 		64.804 		-0.2515
v -25.201 		64.611 		-0.2515
v -25.138 		64.425 		-0.2515
v -25.051 		64.249 		-0.2515
v -24.942 		64.085 		-0.2515
v -24.812 		63.938 		-0.2515
v -24.665 		63.808 		-0.2515
v -23.75 		63.497 		-0.2515
v -24.501 		63.699 		-0.2515
v -24.325 		63.612 		-0.2515
v -24.139 		63.549 		-0.2515
v -23.946 		63.51 		-0.2515
v -25.252 		63.497 		-0.2515
v -22.558 		65.915 		-0.2515
v -22.688 		66.062 		-0.2515
v -22.835 		66.192 		-0.2515
v -22.999 		66.301 		-0.2515
v -23.175 		66.388 		-0.2515
v -23.361 		66.451 		-0.2515
v -23.554 		66.49 		-0.2515
v -22.835 		63.808 		-0.2515
v -22.688 		63.938 		-0.2515
v -22.558 		64.085 		-0.2515
v -22.449 		64.249 		-0.2515
v -22.362 		64.425 		-0.2515
v -22.299 		64.611 		-0.2515
v -22.26 		64.804 		-0.2515
v -22.247 		65 		-0.2515
v -22.26 		65.196 		-0.2515
v -22.299 		65.389 		-0.2515
v -22.362 		65.575 		-0.2515
v -22.449 		65.751 		-0.2515
v -23.554 		63.51 		-0.2515
v -23.361 		63.549 		-0.2515
v -23.175 		63.612 		-0.2515
v -22.999 		63.699 		-0.2515
v -22.449 		32.751 		-0.2515
v -22.558 		32.915 		-0.2515
v -22.688 		33.062 		-0.2515
v -23.554 		30.51 		-0.2515
v -23.361 		30.549 		-0.2515
v -23.175 		30.612 		-0.2515
v -22.999 		30.699 		-0.2515
v -22.835 		30.808 		-0.2515
v -22.688 		30.938 		-0.2515
v -20.993 		56.001 		-0.2515
v -19.902 		57.633 		-0.2515
v -18.608 		59.108 		-0.2515
v -17.133 		60.402 		-0.2515
v -15.501 		61.493 		-0.2515
v -13.741 		62.361 		-0.2515
v -11.883 		62.991 		-0.2515
v -19.902 		39.367 		-0.2515
v -20.993 		40.999 		-0.2515
v -21.861 		42.759 		-0.2515
v -22.491 		44.617 		-0.2515
v -22.874 		46.542 		-0.2515
v -23.002 		48.5 		-0.2515
v -22.874 		50.458 		-0.2515
v -22.491 		52.383 		-0.2515
v -21.861 		54.241 		-0.2515
v -11.883 		34.009 		-0.2515
v -13.741 		34.639 		-0.2515
v -15.501 		35.507 		-0.2515
v -17.133 		36.598 		-0.2515
v -18.608 		37.892 		-0.2515
v -28.003 		8.5 		-0.2515
v -28.003 		88.5 		-0.2515
# 516 vertices

g group_0_4634441

usemtl color_4634441
s 0

f 1 	105 	2
f 105 	6 	4
f 4 	2 	105
f 13 	106 	14
f 10 	106 	13
f 14 	106 	15
f 15 	106 	16
f 16 	106 	17
f 90 	93 	106
f 17 	106 	93
f 93 	94 	17
f 18 	17 	94
f 22 	21 	96
f 27 	26 	96
f 26 	22 	96
f 40 	100 	39
f 41 	103 	42
f 42 	103 	43
f 96 	97 	27
f 47 	99 	48
f 59 	57 	105
f 69 	59 	105
f 69 	105 	1
f 72 	85 	73
f 77 	76 	105
f 79 	78 	105
f 81 	80 	105
f 57 	81 	105
f 75 	74 	85
f 74 	73 	85
f 71 	104 	70
f 43 	103 	71
f 80 	79 	105
f 78 	77 	105
f 76 	75 	105
f 85 	105 	75
f 82 	85 	84
f 84 	72 	104
f 85 	72 	84
f 39 	100 	41
f 48 	100 	40
f 70 	104 	72
f 101 	85 	83
f 82 	83 	85
f 87 	88 	89
f 90 	106 	88
f 91 	92 	88
f 89 	88 	92
f 100 	48 	99
f 46 	44 	99
f 104 	71 	103
f 103 	41 	100
f 97 	98 	30
f 31 	30 	98
f 38 	31 	98
f 98 	99 	38
f 44 	38 	99
f 47 	46 	99
f 30 	29 	97
f 29 	28 	97
f 28 	27 	97
f 95 	96 	21
f 21 	20 	95
f 20 	19 	95
f 19 	18 	95
f 94 	95 	18
f 91 	88 	106
f 105 	106 	9
f 10 	9 	106
f 105 	9 	8
f 8 	6 	105
f 153 	85 	107
f 108 	107 	102
f 109 	108 	102
f 113 	112 	86
f 116 	117 	118
f 119 	118 	117
f 116 	115 	117
f 120 	164 	121
f 121 	164 	122
f 122 	164 	123
f 124 	164 	125
f 126 	165 	127
f 128 	166 	129
f 133 	156 	134
f 135 	129 	160
f 160 	136 	135
f 136 	160 	137
f 139 	138 	160
f 140 	139 	160
f 141 	156 	142
f 142 	156 	143
f 144 	156 	145
f 146 	85 	147
f 151 	85 	152
f 152 	85 	153
f 101 	102 	85
f 134 	156 	154
f 143 	156 	144
f 155 	156 	141
f 154 	156 	155
f 85 	145 	156
f 151 	150 	85
f 85 	150 	149
f 85 	149 	148
f 148 	147 	85
f 146 	145 	85
f 132 	156 	133
f 130 	131 	156
f 131 	140 	156
f 160 	156 	140
f 132 	130 	156
f 157 	160 	167
f 158 	160 	168
f 158 	168 	159
f 164 	120 	117
f 138 	137 	160
f 127 	165 	128
f 125 	165 	126
f 123 	164 	124
f 119 	117 	120
f 166 	167 	129
f 168 	160 	157
f 164 	117 	163
f 166 	128 	165
f 169 	168 	170
f 159 	168 	169
f 117 	115 	86
f 161 	117 	86
f 162 	117 	161
f 162 	163 	117
f 165 	125 	164
f 160 	129 	167
f 115 	114 	86
f 114 	113 	86
f 112 	111 	86
f 111 	110 	86
f 110 	109 	86
f 102 	86 	109
f 102 	107 	85
f 174 	290 	175
f 173 	290 	174
f 175 	290 	176
f 177 	289 	178
f 179 	178 	289
f 179 	289 	180
f 181 	180 	289
f 182 	181 	289
f 184 	289 	185
f 186 	289 	187
f 187 	289 	280
f 188 	187 	280
f 280 	281 	188
f 192 	190 	282
f 197 	196 	106
f 198 	197 	106
f 106 	290 	199
f 201 	200 	290
f 204 	269 	203
f 203 	270 	205
f 206 	270 	207
f 272 	106 	271
f 208 	271 	209
f 211 	210 	106
f 212 	211 	106
f 106 	196 	214
f 216 	268 	217
f 208 	207 	271
f 205 	270 	206
f 218 	268 	204
f 217 	268 	218
f 200 	199 	290
f 199 	198 	106
f 213 	212 	106
f 209 	271 	210
f 271 	106 	210
f 92 	91 	273
f 91 	106 	273
f 214 	213 	106
f 221 	276 	222
f 222 	276 	223
f 223 	276 	224
f 225 	277 	226
f 226 	278 	227
f 227 	278 	228
f 279 	289 	228
f 229 	228 	289
f 232 	288 	233
f 234 	233 	288
f 235 	234 	288
f 236 	235 	288
f 236 	288 	238
f 240 	239 	288
f 242 	288 	243
f 260 	259 	286
f 244 	260 	287
f 246 	274 	247
f 247 	274 	248
f 249 	160 	250
f 256 	255 	285
f 285 	286 	257
f 258 	257 	286
f 259 	258 	286
f 237 	288 	261
f 263 	288 	264
f 288 	160 	264
f 252 	251 	160
f 251 	250 	160
f 160 	249 	266
f 266 	265 	160
f 284 	160 	283
f 257 	256 	285
f 254 	160 	285
f 255 	254 	285
f 284 	285 	160
f 253 	160 	254
f 253 	252 	160
f 158 	283 	160
f 159 	283 	158
f 265 	264 	160
f 262 	288 	263
f 262 	261 	288
f 237 	243 	288
f 216 	215 	268
f 270 	203 	269
f 273 	106 	272
f 276 	221 	275
f 277 	224 	276
f 92 	273 	89
f 89 	273 	87
f 170 	283 	169
f 169 	283 	159
f 287 	274 	244
f 245 	244 	274
f 246 	245 	274
f 275 	248 	274
f 278 	226 	277
f 286 	287 	260
f 279 	228 	278
f 195 	194 	267
f 191 	195 	267
f 215 	191 	267
f 267 	268 	215
f 269 	204 	268
f 271 	207 	270
f 282 	267 	194
f 224 	277 	225
f 193 	192 	282
f 194 	193 	282
f 220 	275 	221
f 219 	275 	220
f 248 	275 	219
f 242 	241 	288
f 241 	240 	288
f 239 	238 	288
f 231 	288 	232
f 230 	229 	289
f 230 	289 	231
f 281 	282 	190
f 190 	189 	281
f 189 	188 	281
f 279 	280 	289
f 186 	185 	289
f 183 	289 	184
f 183 	182 	289
f 288 	231 	289
f 176 	290 	177
f 172 	171 	290
f 171 	202 	290
f 202 	201 	290
f 172 	290 	173
f 289 	177 	290
f 293 	338 	292
f 299 	337 	298
f 297 	298 	337
f 300 	337 	299
f 301 	337 	300
f 302 	337 	301
f 303 	319 	302
f 304 	320 	303
f 305 	320 	304
f 3 	320 	305
f 5 	326 	3
f 11 	326 	7
f 23 	24 	326
f 50 	51 	324
f 331 	37 	306
f 308 	310 	306
f 325 	324 	51
f 34 	33 	325
f 33 	35 	325
f 331 	325 	35
f 35 	36 	331
f 53 	338 	52
f 54 	338 	53
f 338 	54 	291
f 291 	292 	338
f 294 	338 	293
f 60 	306 	58
f 55 	306 	56
f 61 	306 	60
f 62 	306 	61
f 63 	306 	62
f 64 	306 	63
f 66 	338 	65
f 306 	65 	338
f 68 	338 	67
f 52 	338 	68
f 307 	308 	306
f 306 	407 	307
f 64 	65 	306
f 66 	67 	338
f 328 	327 	309
f 36 	37 	331
f 51 	34 	325
f 56 	306 	37
f 332 	331 	306
f 310 	332 	306
f 58 	306 	55
f 312 	313 	314
f 315 	337 	313
f 312 	317 	313
f 315 	313 	317
f 319 	303 	320
f 321 	320 	326
f 322 	321 	326
f 323 	322 	326
f 324 	323 	326
f 326 	25 	324
f 307 	407 	327
f 328 	309 	311
f 25 	32 	324
f 32 	45 	324
f 45 	49 	324
f 49 	50 	324
f 7 	326 	5
f 12 	326 	11
f 326 	24 	25
f 12 	23 	326
f 320 	3 	326
f 337 	302 	318
f 319 	318 	302
f 337 	318 	316
f 316 	313 	337
f 294 	295 	338
f 295 	296 	338
f 297 	337 	296
f 338 	296 	337
f 327 	409 	309
f 345 	309 	344
f 344 	309 	342
f 354 	309 	352
f 363 	416 	362
f 365 	416 	363
f 362 	416 	360
f 366 	416 	365
f 373 	374 	430
f 387 	424 	432
f 432 	431 	387
f 384 	414 	383
f 389 	424 	387
f 391 	424 	389
f 417 	432 	424
f 379 	414 	395
f 398 	414 	397
f 399 	414 	398
f 400 	414 	399
f 407 	306 	406
f 408 	327 	407
f 409 	327 	408
f 405 	406 	306
f 340 	309 	409
f 384 	410 	414
f 411 	414 	410
f 397 	414 	411
f 401 	414 	400
f 402 	403 	414
f 403 	404 	414
f 306 	414 	404
f 405 	306 	404
f 401 	402 	414
f 379 	380 	414
f 380 	382 	414
f 382 	383 	414
f 369 	371 	430
f 417 	424 	433
f 433 	420 	421
f 32 	25 	38
f 371 	373 	430
f 358 	360 	416
f 366 	367 	416
f 431 	430 	374
f 374 	376 	431
f 376 	387 	431
f 393 	424 	391
f 394 	424 	393
f 414 	424 	395
f 394 	395 	424
f 420 	433 	424
f 425 	309 	426
f 309 	416 	426
f 367 	369 	416
f 430 	416 	369
f 434 	433 	435
f 435 	433 	421
f 309 	355 	358
f 430 	428 	416
f 358 	416 	309
f 428 	427 	416
f 427 	426 	416
f 425 	311 	309
f 347 	309 	345
f 349 	309 	347
f 351 	309 	349
f 351 	352 	309
f 354 	355 	309
f 342 	309 	340
f 490 	263 	264
f 438 	516 	437
f 439 	516 	438
f 443 	516 	442
f 441 	442 	516
f 445 	516 	444
f 443 	444 	516
f 446 	516 	445
f 516 	446 	447
f 516 	447 	448
f 450 	461 	449
f 448 	449 	461
f 451 	461 	450
f 452 	461 	451
f 453 	461 	452
f 454 	461 	453
f 455 	461 	454
f 458 	509 	457
f 457 	461 	455
f 459 	509 	458
f 465 	337 	464
f 464 	337 	463
f 468 	516 	467
f 467 	516 	466
f 436 	516 	468
f 471 	472 	497
f 470 	471 	497
f 472 	473 	497
f 498 	497 	473
f 475 	476 	498
f 474 	498 	473
f 462 	337 	480
f 497 	496 	470
f 469 	470 	496
f 474 	475 	498
f 498 	476 	337
f 478 	337 	477
f 479 	337 	478
f 480 	337 	479
f 499 	498 	337
f 463 	337 	462
f 466 	516 	465
f 315 	500 	337
f 500 	499 	337
f 317 	500 	315
f 334 	335 	503
f 504 	503 	336
f 336 	339 	504
f 505 	504 	341
f 339 	341 	504
f 390 	388 	247
f 341 	343 	505
f 506 	505 	346
f 348 	461 	346
f 343 	346 	505
f 350 	461 	348
f 461 	506 	346
f 461 	350 	353
f 357 	515 	356
f 364 	515 	361
f 372 	515 	370
f 375 	515 	372
f 370 	515 	364
f 359 	361 	515
f 377 	515 	375
f 378 	515 	377
f 381 	368 	515
f 386 	501 	385
f 333 	334 	503
f 388 	501 	386
f 415 	424 	413
f 413 	424 	412
f 418 	424 	415
f 512 	424 	419
f 486 	513 	485
f 487 	513 	486
f 385 	514 	487
f 490 	491 	515
f 424 	515 	491
f 489 	490 	515
f 492 	424 	491
f 396 	424 	493
f 492 	493 	424
f 396 	412 	424
f 422 	512 	419
f 423 	512 	422
f 512 	423 	429
f 485 	513 	429
f 512 	429 	513
f 418 	419 	424
f 511 	424 	512
f 421 	420 	510
f 420 	424 	510
f 488 	489 	515
f 368 	488 	515
f 381 	515 	378
f 483 	484 	495
f 496 	495 	469
f 502 	501 	392
f 329 	330 	502
f 330 	333 	502
f 500 	312 	314
f 477 	337 	476
f 312 	500 	317
f 435 	510 	434
f 510 	435 	421
f 510 	424 	511
f 392 	329 	502
f 390 	392 	501
f 514 	385 	501
f 513 	487 	514
f 390 	501 	388
f 484 	469 	495
f 494 	481 	495
f 509 	459 	494
f 508 	461 	509
f 507 	461 	508
f 506 	461 	507
f 503 	502 	333
f 335 	336 	503
f 456 	494 	460
f 457 	509 	461
f 460 	494 	459
f 481 	494 	456
f 482 	495 	481
f 483 	495 	482
f 516 	448 	461
f 353 	515 	461
f 356 	515 	353
f 359 	515 	357
f 516 	461 	515
f 337 	465 	516
f 437 	516 	436
f 441 	516 	440
f 439 	440 	516
f 289 	515 	288
f 515 	289 	516
f 290 	516 	289
f 338 	105 	306
f 306 	85 	414
f 156 	414 	85
f 85 	306 	105
f 338 	337 	106
f 338 	106 	105
f 13 	298 	297
f 13 	299 	298
f 228 	229 	346
f 239 	372 	238
f 372 	239 	240
f 247 	248 	392
f 252 	415 	251
f 415 	252 	253
f 259 	486 	258
f 32 	38 	45
f 116 	118 	355
f 44 	46 	45
f 335 	334 	223
f 131 	379 	140
f 386 	385 	245
f 392 	248 	219
f 346 	227 	228
f 19 	304 	303
f 304 	19 	305
f 39 	33 	40
f 131 	380 	379
f 43 	37 	42
f 34 	51 	40
f 245 	246 	388
f 388 	246 	247
f 31 	38 	25
f 34 	40 	33
f 393 	137 	138
f 55 	71 	70
f 55 	70 	72
f 422 	254 	255
f 422 	255 	256
f 49 	46 	50
f 399 	143 	144
f 485 	257 	258
f 47 	51 	50
f 307 	83 	308
f 490 	489 	263
f 307 	327 	83
f 55 	56 	71
f 84 	310 	308
f 83 	82 	308
f 60 	58 	73
f 84 	308 	82
f 267 	494 	495
f 497 	270 	496
f 270 	497 	498
f 313 	88 	314
f 499 	272 	498
f 272 	499 	500
f 88 	313 	90
f 316 	90 	313
f 90 	316 	93
f 318 	93 	316
f 319 	93 	318
f 320 	95 	319
f 501 	502 	275
f 275 	502 	503
f 275 	503 	276
f 321 	95 	320
f 276 	503 	504
f 324 	99 	323
f 111 	347 	345
f 99 	324 	325
f 507 	280 	506
f 508 	280 	507
f 494 	267 	509
f 6 	294 	293
f 355 	115 	116
f 84 	332 	310
f 295 	8 	296
f 311 	425 	86
f 9 	10 	296
f 88 	87 	314
f 512 	285 	511
f 513 	286 	285
f 513 	285 	512
f 286 	513 	514
f 226 	227 	341
f 319 	94 	93
f 495 	268 	267
f 496 	269 	495
f 268 	495 	269
f 270 	269 	496
f 498 	271 	270
f 272 	271 	498
f 500 	273 	272
f 314 	273 	500
f 287 	514 	274
f 397 	141 	142
f 274 	501 	275
f 276 	504 	277
f 505 	278 	504
f 277 	504 	278
f 506 	279 	505
f 278 	505 	279
f 279 	506 	280
f 508 	281 	280
f 281 	508 	509
f 281 	509 	282
f 509 	267 	282
f 87 	273 	314
f 147 	403 	146
f 434 	510 	283
f 434 	283 	170
f 511 	284 	510
f 283 	510 	284
f 284 	511 	285
f 286 	514 	287
f 501 	274 	514
f 161 	86 	425
f 95 	94 	319
f 410 	154 	155
f 321 	96 	95
f 322 	97 	96
f 322 	96 	321
f 97 	322 	98
f 323 	98 	322
f 427 	428 	164
f 409 	153 	107
f 99 	98 	323
f 164 	428 	430
f 325 	100 	99
f 431 	432 	167
f 180 	445 	444
f 327 	101 	83
f 167 	432 	417
f 101 	327 	102
f 328 	102 	327
f 445 	180 	181
f 157 	417 	433
f 311 	86 	102
f 311 	102 	328
f 100 	325 	103
f 331 	103 	325
f 111 	112 	349
f 332 	104 	103
f 332 	103 	331
f 161 	425 	162
f 332 	84 	104
f 162 	425 	426
f 112 	113 	349
f 31 	25 	24
f 162 	426 	427
f 162 	427 	163
f 106 	516 	290
f 351 	113 	114
f 163 	427 	164
f 106 	337 	516
f 164 	430 	165
f 156 	160 	414
f 414 	160 	424
f 431 	166 	430
f 165 	430 	166
f 166 	431 	167
f 417 	157 	167
f 157 	433 	168
f 434 	170 	433
f 168 	433 	170
f 288 	515 	160
f 42 	37 	36
f 424 	160 	515
f 37 	43 	71
f 459 	193 	194
f 194 	195 	459
f 365 	122 	123
f 74 	61 	73
f 206 	472 	471
f 382 	380 	132
f 115 	354 	114
f 264 	265 	491
f 219 	220 	329
f 478 	212 	213
f 138 	394 	393
f 76 	77 	63
f 64 	77 	65
f 80 	67 	66
f 335 	224 	336
f 67 	80 	68
f 56 	37 	71
f 291 	54 	1
f 175 	440 	439
f 1 	292 	291
f 8 	295 	6
f 235 	361 	234
f 397 	155 	141
f 187 	452 	186
f 21 	3 	305
f 351 	349 	113
f 457 	192 	193
f 35 	33 	41
f 42 	36 	35
f 44 	45 	38
f 242 	381 	378
f 49 	45 	46
f 47 	50 	46
f 260 	385 	487
f 48 	51 	47
f 48 	40 	51
f 59 	69 	53
f 478 	211 	212
f 55 	72 	58
f 72 	73 	58
f 60 	73 	61
f 61 	74 	62
f 62 	76 	63
f 253 	254 	418
f 64 	63 	77
f 130 	380 	131
f 80 	81 	68
f 135 	387 	376
f 54 	69 	1
f 394 	139 	140
f 264 	491 	490
f 16 	17 	301
f 17 	18 	302
f 303 	302 	18
f 303 	18 	19
f 305 	19 	20
f 460 	459 	195
f 191 	456 	195
f 460 	195 	456
f 21 	305 	20
f 22 	5 	21
f 3 	21 	5
f 7 	5 	26
f 22 	26 	5
f 27 	11 	7
f 27 	7 	26
f 399 	142 	143
f 28 	12 	27
f 11 	27 	12
f 29 	23 	28
f 12 	28 	23
f 23 	29 	24
f 30 	24 	29
f 468 	201 	202
f 30 	31 	24
f 401 	145 	146
f 468 	202 	171
f 148 	404 	147
f 39 	41 	33
f 405 	404 	149
f 148 	149 	404
f 41 	42 	35
f 405 	149 	150
f 207 	208 	474
f 474 	208 	475
f 409 	152 	153
f 81 	57 	68
f 59 	53 	57
f 52 	57 	53
f 54 	53 	69
f 357 	233 	359
f 62 	74 	75
f 75 	76 	62
f 78 	65 	77
f 65 	78 	66
f 79 	66 	78
f 66 	79 	80
f 52 	68 	57
f 344 	108 	109
f 344 	109 	345
f 110 	345 	109
f 292 	1 	2
f 110 	111 	345
f 4 	293 	2
f 292 	2 	293
f 293 	4 	6
f 294 	6 	295
f 9 	296 	8
f 297 	296 	10
f 297 	10 	13
f 299 	13 	14
f 299 	14 	300
f 15 	300 	14
f 360 	118 	119
f 300 	15 	301
f 16 	301 	15
f 120 	362 	360
f 120 	360 	119
f 302 	301 	17
f 240 	377 	375
f 242 	378 	377
f 365 	121 	122
f 386 	245 	388
f 369 	124 	125
f 371 	369 	126
f 125 	126 	369
f 371 	126 	127
f 412 	250 	413
f 129 	376 	128
f 376 	129 	135
f 471 	205 	206
f 130 	132 	380
f 382 	132 	133
f 423 	256 	429
f 257 	485 	429
f 410 	134 	154
f 260 	487 	486
f 387 	135 	136
f 480 	213 	214
f 139 	394 	138
f 469 	218 	204
f 111 	349 	347
f 114 	352 	351
f 438 	173 	439
f 352 	114 	354
f 174 	175 	439
f 354 	115 	355
f 401 	144 	145
f 355 	118 	358
f 360 	358 	118
f 224 	225 	336
f 444 	178 	179
f 339 	225 	341
f 444 	179 	180
f 121 	363 	120
f 362 	120 	363
f 365 	363 	121
f 123 	366 	365
f 484 	483 	218
f 367 	366 	123
f 367 	123 	124
f 218 	469 	484
f 124 	369 	367
f 127 	373 	371
f 172 	173 	437
f 373 	127 	374
f 128 	374 	127
f 234 	359 	233
f 128 	376 	374
f 190 	455 	189
f 457 	455 	192
f 190 	192 	455
f 176 	177 	441
f 177 	178 	442
f 133 	383 	382
f 134 	384 	133
f 383 	133 	384
f 480 	214 	196
f 134 	410 	384
f 200 	466 	199
f 136 	389 	387
f 200 	201 	466
f 389 	136 	391
f 137 	391 	136
f 183 	184 	448
f 137 	393 	391
f 237 	368 	381
f 469 	204 	203
f 471 	203 	205
f 395 	394 	140
f 395 	140 	379
f 475 	208 	209
f 142 	398 	397
f 475 	209 	210
f 398 	142 	399
f 456 	191 	215
f 144 	400 	399
f 144 	401 	400
f 251 	415 	413
f 146 	402 	401
f 253 	418 	415
f 402 	146 	403
f 147 	404 	403
f 254 	422 	419
f 406 	405 	150
f 199 	466 	465
f 407 	406 	151
f 150 	151 	406
f 407 	151 	408
f 152 	408 	151
f 152 	409 	408
f 155 	411 	410
f 397 	411 	155
f 207 	473 	472
f 409 	107 	340
f 340 	107 	342
f 108 	342 	107
f 108 	344 	342
f 330 	220 	333
f 221 	334 	333
f 196 	462 	480
f 481 	456 	215
f 215 	216 	481
f 231 	356 	353
f 233 	357 	356
f 172 	437 	171
f 436 	171 	437
f 438 	437 	173
f 359 	234 	361
f 235 	236 	361
f 174 	439 	173
f 368 	237 	488
f 261 	488 	237
f 441 	440 	176
f 175 	176 	440
f 442 	441 	177
f 375 	372 	240
f 443 	442 	178
f 242 	377 	241
f 243 	381 	242
f 178 	444 	443
f 237 	381 	243
f 244 	385 	260
f 244 	245 	385
f 247 	392 	390
f 181 	446 	445
f 493 	266 	396
f 446 	181 	447
f 182 	447 	181
f 249 	250 	396
f 412 	396 	250
f 251 	413 	250
f 182 	183 	447
f 448 	447 	183
f 449 	448 	184
f 419 	418 	254
f 449 	184 	450
f 185 	450 	184
f 423 	422 	256
f 451 	450 	186
f 185 	186 	450
f 257 	429 	256
f 451 	186 	452
f 485 	258 	486
f 453 	452 	188
f 187 	188 	452
f 486 	259 	260
f 453 	188 	454
f 189 	454 	188
f 262 	489 	261
f 488 	261 	489
f 189 	455 	454
f 262 	263 	489
f 492 	491 	265
f 492 	265 	493
f 266 	493 	265
f 249 	396 	266
f 193 	458 	457
f 219 	329 	392
f 330 	329 	220
f 193 	459 	458
f 221 	333 	220
f 222 	334 	221
f 222 	223 	334
f 335 	223 	224
f 339 	336 	225
f 463 	462 	197
f 196 	197 	462
f 226 	341 	225
f 463 	197 	464
f 198 	464 	197
f 343 	341 	227
f 346 	343 	227
f 464 	198 	465
f 199 	465 	198
f 229 	348 	346
f 229 	230 	348
f 350 	348 	230
f 231 	353 	230
f 350 	230 	353
f 201 	467 	466
f 232 	356 	231
f 201 	468 	467
f 233 	356 	232
f 436 	468 	171
f 364 	361 	236
f 203 	470 	469
f 236 	370 	364
f 470 	203 	471
f 238 	370 	236
f 238 	372 	370
f 472 	206 	207
f 377 	240 	241
f 473 	207 	474
f 210 	476 	475
f 210 	211 	476
f 477 	476 	211
f 477 	211 	478
f 213 	479 	478
f 213 	480 	479
f 482 	481 	216
f 482 	216 	483
f 217 	483 	216
f 217 	218 	483
# 1048 faces

 #end of obj_0

o obj_1
v -74.7645 		32.304 		-0.2515
v -74.7525 		32.5 		-0.2515
v -77.0055 		31.199 		39.7485
v -74.7645 		32.696 		-0.2515
v -74.8035 		32.889 		-0.2515
v -74.8665 		33.075 		-0.2515
v -74.9535 		33.251 		-0.2515
v -75.0625 		33.415 		-0.2515
v -75.1925 		33.562 		-0.2515
v -75.3395 		33.692 		-0.2515
v -76.4505 		33.99 		-0.2515
v -76.2545 		34.003 		-0.2515
v -76.6435 		33.951 		-0.2515
v -76.8295 		33.888 		-0.2515
v -77.0055 		33.801 		-0.2515
v -75.5035 		33.801 		-0.2515
v -75.6795 		33.888 		-0.2515
v -75.8655 		33.951 		-0.2515
v -76.0585 		33.99 		-0.2515
v -77.4465 		31.585 		-0.2515
v -77.3165 		31.438 		-0.2515
v -77.1695 		31.308 		-0.2515
v -77.3165 		33.562 		-0.2515
v -77.1695 		33.692 		-0.2515
v -77.4465 		33.415 		-0.2515
v -77.5555 		33.251 		-0.2515
v -76.8295 		31.112 		39.7485
v -77.6425 		33.075 		-0.2515
v -76.6435 		31.049 		39.7485
v -77.7055 		32.889 		-0.2515
v -76.4505 		31.01 		39.7485
v -76.2545 		30.998 		39.7485
v -76.0585 		31.01 		39.7485
v -77.7445 		32.696 		-0.2515
v -75.8655 		31.049 		39.7485
v -77.7575 		32.5 		-0.2515
v -75.6795 		31.112 		39.7485
v -75.5035 		31.199 		39.7485
v -77.7445 		32.304 		-0.2515
v -75.3395 		31.308 		39.7485
v -75.1925 		31.438 		39.7485
v -77.7055 		32.111 		-0.2515
v -75.0625 		31.585 		39.7485
v -77.6425 		31.925 		-0.2515
v -77.5555 		31.749 		-0.2515
v -74.9535 		31.749 		39.7485
v -74.8665 		31.925 		39.7485
v -74.8035 		32.111 		39.7485
v -74.7645 		32.304 		39.7485
v -74.7525 		32.5 		39.7485
v -74.7645 		32.696 		39.7485
v -74.8035 		32.889 		39.7485
v -74.8665 		33.075 		39.7485
v -74.9535 		33.251 		39.7485
v -75.0625 		33.415 		39.7485
v -75.1925 		33.562 		39.7485
v -75.3395 		33.692 		39.7485
v -76.4505 		33.99 		39.7485
v -76.2545 		34.003 		39.7485
v -76.6435 		33.951 		39.7485
v -76.8295 		33.888 		39.7485
v -77.0055 		33.801 		39.7485
v -75.5035 		33.801 		39.7485
v -75.6795 		33.888 		39.7485
v -75.8655 		33.951 		39.7485
v -76.0585 		33.99 		39.7485
v -77.4465 		31.585 		39.7485
v -77.3165 		31.438 		39.7485
v -77.1695 		31.308 		39.7485
v -77.3165 		33.562 		39.7485
v -77.1695 		33.692 		39.7485
v -77.4465 		33.415 		39.7485
v -77.5555 		33.251 		39.7485
v -77.6425 		33.075 		39.7485
v -77.7055 		32.889 		39.7485
v -77.7445 		32.696 		39.7485
v -77.7575 		32.5 		39.7485
v -77.7445 		32.304 		39.7485
v -77.7055 		32.111 		39.7485
v -77.6425 		31.925 		39.7485
v -77.5555 		31.749 		39.7485
v -75.0075 		49 		39.7485
v -74.8785 		50.958 		39.7485
v -74.8785 		47.042 		39.7485
v -80.0045 		64.003 		39.7485
v -72.9975 		56.501 		39.7485
v -44.2545 		30.998 		39.7485
v -57.231 		34.2882 		39.7485
v -58.0465 		34.126 		39.7485
v -57.16 		34.184 		39.7485
v -44.0585 		31.01 		39.7485
v -60.0045 		33.998 		39.7485
v -57.0333 		33.998 		39.7485
v -43.8655 		31.049 		39.7485
v -57.0367 		34.003 		39.7485
v -43.6795 		31.112 		39.7485
v -61.9625 		34.126 		39.7485
v -63.8875 		34.509 		39.7485
v -43.5035 		31.199 		39.7485
v -65.7455 		35.139 		39.7485
v -43.3395 		31.308 		39.7485
v -67.5055 		36.007 		39.7485
v -43.1925 		31.438 		39.7485
v -69.1375 		37.098 		39.7485
v -43.0625 		31.585 		39.7485
v -70.6125 		38.392 		39.7485
v -71.9065 		39.867 		39.7485
v -72.9975 		41.499 		39.7485
v -42.9535 		31.749 		39.7485
v -74.4955 		52.883 		39.7485
v -42.8665 		31.925 		39.7485
v -42.8035 		32.111 		39.7485
v -42.7645 		32.304 		39.7485
v -42.7525 		32.5 		39.7485
v -42.7645 		32.696 		39.7485
v -42.8035 		32.889 		39.7485
v -42.8665 		33.075 		39.7485
v -42.9535 		33.251 		39.7485
v -43.0625 		33.415 		39.7485
v -43.1925 		33.562 		39.7485
v -43.3395 		33.692 		39.7485
v -44.2545 		34.003 		39.7485
v -43.5035 		33.801 		39.7485
v -43.6795 		33.888 		39.7485
v -43.8655 		33.951 		39.7485
v -44.0585 		33.99 		39.7485
v -45.4465 		31.585 		39.7485
v -45.3165 		31.438 		39.7485
v -45.1695 		31.308 		39.7485
v -77.0055 		64.199 		39.7485
v -45.0055 		31.199 		39.7485
v -76.8295 		64.112 		39.7485
v -44.8295 		31.112 		39.7485
v -44.6435 		31.049 		39.7485
v -76.6435 		64.049 		39.7485
v -44.4505 		31.01 		39.7485
v -76.4505 		64.01 		39.7485
v -76.2545 		63.998 		39.7485
v -76.0585 		64.01 		39.7485
v -45.3165 		33.562 		39.7485
v -45.1695 		33.692 		39.7485
v -75.8655 		64.049 		39.7485
v -45.4465 		33.415 		39.7485
v -75.6795 		64.112 		39.7485
v -45.5555 		33.251 		39.7485
v -75.5035 		64.199 		39.7485
v -45.6425 		33.075 		39.7485
v -75.3395 		64.308 		39.7485
v -45.7055 		32.889 		39.7485
v -45.7445 		32.696 		39.7485
v -75.1925 		64.438 		39.7485
v -45.7575 		32.5 		39.7485
v -75.0625 		64.585 		39.7485
v -45.7445 		32.304 		39.7485
v -74.9535 		64.749 		39.7485
v -45.7055 		32.111 		39.7485
v -74.8665 		64.925 		39.7485
v -45.6425 		31.925 		39.7485
v -74.8035 		65.111 		39.7485
v -45.5555 		31.749 		39.7485
v -74.7645 		65.304 		39.7485
v -44.4505 		33.99 		39.7485
v -74.7525 		65.5 		39.7485
v -44.6435 		33.951 		39.7485
v -74.7645 		65.696 		39.7485
v -44.8295 		33.888 		39.7485
v -74.8035 		65.889 		39.7485
v -45.0055 		33.801 		39.7485
v -74.8665 		66.075 		39.7485
v -74.9535 		66.251 		39.7485
v -75.0625 		66.415 		39.7485
v -76.4505 		66.99 		39.7485
v -76.2545 		67.003 		39.7485
v -76.6435 		66.951 		39.7485
v -76.8295 		66.888 		39.7485
v -77.0055 		66.801 		39.7485
v -75.1925 		66.562 		39.7485
v -75.3395 		66.692 		39.7485
v -75.5035 		66.801 		39.7485
v -75.6795 		66.888 		39.7485
v -75.8655 		66.951 		39.7485
v -76.0585 		66.99 		39.7485
v -77.4465 		66.415 		39.7485
v -77.5555 		66.251 		39.7485
v -77.6425 		66.075 		39.7485
v -77.7055 		65.889 		39.7485
v -77.7445 		65.696 		39.7485
v -77.7575 		65.5 		39.7485
v -77.7445 		65.304 		39.7485
v -77.7055 		65.111 		39.7485
v -77.6425 		64.925 		39.7485
v -77.5555 		64.749 		39.7485
v -77.4465 		64.585 		39.7485
v -77.3165 		64.438 		39.7485
v -77.1695 		64.308 		39.7485
v -77.1695 		66.692 		39.7485
v -77.3165 		66.562 		39.7485
v -60.0045 		64.003 		-0.2515
v -60.0045 		64.003 		39.7485
v -71.9065 		58.133 		-0.2515
v -70.6125 		59.608 		-0.2515
v -44.2545 		63.998 		-0.2515
v -69.1375 		60.902 		-0.2515
v -44.0585 		64.01 		-0.2515
v -67.5055 		61.993 		-0.2515
v -65.7455 		62.861 		-0.2515
v -43.8655 		64.049 		-0.2515
v -63.8875 		63.491 		-0.2515
v -61.9625 		63.874 		-0.2515
v -58.0465 		63.874 		-0.2515
v -57.231 		63.7118 		-0.2515
v -71.9065 		58.133 		39.7485
v -43.6795 		64.112 		-0.2515
v -43.5035 		64.199 		-0.2515
v -70.6125 		59.608 		39.7485
v -43.3395 		64.308 		-0.2515
v -69.1375 		60.902 		39.7485
v -67.5055 		61.993 		39.7485
v -65.7455 		62.861 		39.7485
v -43.1925 		64.438 		-0.2515
v -63.8875 		63.491 		39.7485
v -61.9625 		63.874 		39.7485
v -73.8655 		54.741 		39.7485
v -43.0625 		64.585 		-0.2515
v -73.8655 		43.259 		39.7485
v -74.4955 		45.117 		39.7485
v -42.9535 		64.749 		-0.2515
v -42.8665 		64.925 		-0.2515
v -42.8035 		65.111 		-0.2515
v -42.7645 		65.304 		-0.2515
v -80.0045 		29 		39.7485
v -53.628 		29 		39.7485
v -42.7525 		65.5 		-0.2515
v -42.7645 		65.696 		-0.2515
v -42.8035 		65.889 		-0.2515
v -42.8665 		66.075 		-0.2515
v -42.9535 		66.251 		-0.2515
v -43.0625 		66.415 		-0.2515
v -58.0465 		63.874 		39.7485
v -57.231 		63.7118 		39.7485
v -53.628 		69 		-0.2515
v -53.628 		69 		39.7485
v -40.0015 		89 		-0.2515
v -40.0015 		89 		39.7485
v -44.2545 		67.003 		-0.2515
v -43.1925 		66.562 		-0.2515
v -43.3395 		66.692 		-0.2515
v -43.5035 		66.801 		-0.2515
v -43.6795 		66.888 		-0.2515
v -43.8655 		66.951 		-0.2515
v -44.0585 		66.99 		-0.2515
v -45.1695 		64.308 		-0.2515
v -45.0055 		64.199 		-0.2515
v -44.8295 		64.112 		-0.2515
v -44.6435 		64.049 		-0.2515
v -44.4505 		64.01 		-0.2515
v -45.4465 		66.415 		-0.2515
v -45.5555 		66.251 		-0.2515
v -45.6425 		66.075 		-0.2515
v -45.7055 		65.889 		-0.2515
v -45.7445 		65.696 		-0.2515
v -45.7575 		65.5 		-0.2515
v -45.7445 		65.304 		-0.2515
v -45.7055 		65.111 		-0.2515
v -45.6425 		64.925 		-0.2515
v -45.5555 		64.749 		-0.2515
v -45.4465 		64.585 		-0.2515
v -45.3165 		64.438 		-0.2515
v -44.4505 		66.99 		-0.2515
v -44.6435 		66.951 		-0.2515
v -44.8295 		66.888 		-0.2515
v -45.0055 		66.801 		-0.2515
v -45.1695 		66.692 		-0.2515
v -45.3165 		66.562 		-0.2515
v -44.2545 		30.998 		-0.2515
v -44.0585 		31.01 		-0.2515
v -43.8655 		31.049 		-0.2515
v -43.6795 		31.112 		-0.2515
v -43.5035 		31.199 		-0.2515
v -43.3395 		31.308 		-0.2515
v -43.1925 		31.438 		-0.2515
v -43.0625 		31.585 		-0.2515
v -42.9535 		31.749 		-0.2515
v -42.8665 		31.925 		-0.2515
v -42.8035 		32.111 		-0.2515
v -42.7645 		32.304 		-0.2515
v -42.7525 		32.5 		-0.2515
v -42.7645 		32.696 		-0.2515
v -42.8035 		32.889 		-0.2515
v -42.8665 		33.075 		-0.2515
v -42.9535 		33.251 		-0.2515
v -43.0625 		33.415 		-0.2515
v -43.1925 		33.562 		-0.2515
v -43.3395 		33.692 		-0.2515
v -44.2545 		34.003 		-0.2515
v -43.5035 		33.801 		-0.2515
v -43.6795 		33.888 		-0.2515
v -43.8655 		33.951 		-0.2515
v -44.0585 		33.99 		-0.2515
v -45.4465 		31.585 		-0.2515
v -45.3165 		31.438 		-0.2515
v -45.1695 		31.308 		-0.2515
v -45.0055 		31.199 		-0.2515
v -44.8295 		31.112 		-0.2515
v -44.6435 		31.049 		-0.2515
v -44.4505 		31.01 		-0.2515
v -45.3165 		33.562 		-0.2515
v -45.1695 		33.692 		-0.2515
v -45.4465 		33.415 		-0.2515
v -45.5555 		33.251 		-0.2515
v -45.6425 		33.075 		-0.2515
v -45.7055 		32.889 		-0.2515
v -45.7445 		32.696 		-0.2515
v -80.0045 		69 		39.7485
v -57.0326 		64.003 		39.7485
v -57.036 		63.998 		39.7485
v -54.9886 		67.003 		39.7485
v -45.7575 		32.5 		-0.2515
v -45.7445 		32.304 		-0.2515
v -45.7055 		32.111 		-0.2515
v -45.6425 		31.925 		-0.2515
v -45.5555 		31.749 		-0.2515
v -44.4505 		33.99 		-0.2515
v -44.6435 		33.951 		-0.2515
v -44.8295 		33.888 		-0.2515
v -45.0055 		33.801 		-0.2515
v -57.145 		63.838 		39.7485
v -44.2545 		63.998 		39.7485
v -44.0585 		64.01 		39.7485
v -43.8655 		64.049 		39.7485
v -43.6795 		64.112 		39.7485
v -43.5035 		64.199 		39.7485
v -43.3395 		64.308 		39.7485
v -42.7525 		63.998 		39.7485
v -43.1925 		64.438 		39.7485
v -43.0625 		64.585 		39.7485
v -42.9535 		64.749 		39.7485
v -42.8665 		64.925 		39.7485
v -42.8035 		65.111 		39.7485
v -42.7645 		65.304 		39.7485
v -42.7525 		65.5 		39.7485
v -42.7645 		65.696 		39.7485
v -42.8035 		65.889 		39.7485
v -42.8665 		66.075 		39.7485
v -42.9535 		66.251 		39.7485
v -43.0625 		66.415 		39.7485
v -44.2545 		67.003 		39.7485
v -43.1925 		66.562 		39.7485
v -43.3395 		66.692 		39.7485
v -43.5035 		66.801 		39.7485
v -43.6795 		66.888 		39.7485
v -43.8655 		66.951 		39.7485
v -44.0585 		66.99 		39.7485
v -45.1695 		64.308 		39.7485
v -45.0055 		64.199 		39.7485
v -44.8295 		64.112 		39.7485
v -44.6435 		64.049 		39.7485
v -44.4505 		64.01 		39.7485
v -45.4465 		66.415 		39.7485
v -45.5555 		66.251 		39.7485
v -45.6425 		66.075 		39.7485
v -74.8785 		50.958 		-0.2515
v -75.0075 		49 		-0.2515
v -74.8785 		47.042 		-0.2515
v -72.9975 		56.501 		-0.2515
v -58.0465 		34.126 		-0.2515
v -57.231 		34.2882 		-0.2515
v -60.0045 		33.998 		-0.2515
v -61.9625 		34.126 		-0.2515
v -63.8875 		34.509 		-0.2515
v -65.7455 		35.139 		-0.2515
v -67.5055 		36.007 		-0.2515
v -45.7055 		65.889 		39.7485
v -45.7445 		65.696 		39.7485
v -69.1375 		37.098 		-0.2515
v -45.7575 		65.5 		39.7485
v -70.6125 		38.392 		-0.2515
v -45.7445 		65.304 		39.7485
v -71.9065 		39.867 		-0.2515
v -45.7055 		65.111 		39.7485
v -45.6425 		64.925 		39.7485
v -72.9975 		41.499 		-0.2515
v -45.5555 		64.749 		39.7485
v -45.4465 		64.585 		39.7485
v -74.4955 		52.883 		-0.2515
v -73.8655 		54.741 		-0.2515
v -73.8655 		43.259 		-0.2515
v -45.3165 		64.438 		39.7485
v -74.4955 		45.117 		-0.2515
v -44.4505 		66.99 		39.7485
v -44.6435 		66.951 		39.7485
v -40.0015 		9 		-0.2515
v -40.0015 		9 		39.7485
v -53.628 		29 		-0.2515
v -80.0045 		69 		-0.2515
v -77.0055 		64.199 		-0.2515
v -76.8295 		64.112 		-0.2515
v -76.6435 		64.049 		-0.2515
v -76.4505 		64.01 		-0.2515
v -76.2545 		63.998 		-0.2515
v -76.0585 		64.01 		-0.2515
v -75.8655 		64.049 		-0.2515
v -75.6795 		64.112 		-0.2515
v -75.5035 		64.199 		-0.2515
v -75.3395 		64.308 		-0.2515
v -75.1925 		64.438 		-0.2515
v -75.0625 		64.585 		-0.2515
v -44.8295 		66.888 		39.7485
v -45.0055 		66.801 		39.7485
v -74.9535 		64.749 		-0.2515
v -45.1695 		66.692 		39.7485
v -45.3165 		66.562 		39.7485
v -74.8665 		64.925 		-0.2515
v -74.8035 		65.111 		-0.2515
v -74.7645 		65.304 		-0.2515
v -47.0115 		41.499 		39.7485
v -48.1025 		39.867 		39.7485
v -49.3965 		38.392 		39.7485
v -50.8715 		37.098 		39.7485
v -52.5035 		36.007 		39.7485
v -74.7525 		65.5 		-0.2515
v -74.7645 		65.696 		-0.2515
v -74.8035 		65.889 		-0.2515
v -74.8665 		66.075 		-0.2515
v -74.9535 		66.251 		-0.2515
v -54.2635 		35.139 		39.7485
v -56.1215 		34.509 		39.7485
v -48.1025 		58.133 		39.7485
v -47.0115 		56.501 		39.7485
v -46.1435 		54.741 		39.7485
v -45.5135 		52.883 		39.7485
v -45.1305 		50.958 		39.7485
v -45.0025 		49 		39.7485
v -45.1305 		47.042 		39.7485
v -45.5135 		45.117 		39.7485
v -46.1435 		43.259 		39.7485
v -56.1215 		63.491 		39.7485
v -54.2635 		62.861 		39.7485
v -52.5035 		61.993 		39.7485
v -50.8715 		60.902 		39.7485
v -49.3965 		59.608 		39.7485
v -75.0625 		66.415 		-0.2515
v -40.0015 		30.998 		39.7485
v -76.4505 		66.99 		-0.2515
v -76.2545 		67.003 		-0.2515
v -76.6435 		66.951 		-0.2515
v -76.8295 		66.888 		-0.2515
v -77.0055 		31.199 		-0.2515
v -77.0055 		66.801 		-0.2515
v -76.8295 		31.112 		-0.2515
v -76.6435 		31.049 		-0.2515
v -76.4505 		31.01 		-0.2515
v -75.1925 		66.562 		-0.2515
v -75.3395 		66.692 		-0.2515
v -76.2545 		30.998 		-0.2515
v -76.0585 		31.01 		-0.2515
v -75.5035 		66.801 		-0.2515
v -75.8655 		31.049 		-0.2515
v -75.6795 		31.112 		-0.2515
v -75.6795 		66.888 		-0.2515
v -75.8655 		66.951 		-0.2515
v -75.5035 		31.199 		-0.2515
v -75.3395 		31.308 		-0.2515
v -76.0585 		66.99 		-0.2515
v -75.1925 		31.438 		-0.2515
v -75.0625 		31.585 		-0.2515
v -77.4465 		66.415 		-0.2515
v -74.9535 		31.749 		-0.2515
v -77.5555 		66.251 		-0.2515
v -74.8665 		31.925 		-0.2515
v -77.6425 		66.075 		-0.2515
v -74.8035 		32.111 		-0.2515
v -77.7055 		65.889 		-0.2515
v -77.7445 		65.696 		-0.2515
v -77.7575 		65.5 		-0.2515
v -77.7445 		65.304 		-0.2515
v -77.7055 		65.111 		-0.2515
v -77.6425 		64.925 		-0.2515
v -77.5555 		64.749 		-0.2515
v -77.4465 		64.585 		-0.2515
v -77.3165 		64.438 		-0.2515
v -77.1695 		64.308 		-0.2515
v -77.1695 		66.692 		-0.2515
v -77.3165 		66.562 		-0.2515
v -80.0045 		64.003 		-0.2515
v -57.16 		34.184 		-0.2515
v -57.0333 		33.998 		-0.2515
v -57.0367 		34.003 		-0.2515
v -73.0225 		33.998 		-0.2515
v -80.0045 		29 		-0.2515
v -57.0326 		64.003 		-0.2515
v -57.036 		63.998 		-0.2515
v -47.0115 		41.499 		-0.2515
v -48.1025 		39.867 		-0.2515
v -49.3965 		38.392 		-0.2515
v -50.8715 		37.098 		-0.2515
v -52.5035 		36.007 		-0.2515
v -54.2635 		35.139 		-0.2515
v -56.1215 		34.509 		-0.2515
v -48.1025 		58.133 		-0.2515
v -47.0115 		56.501 		-0.2515
v -46.1435 		54.741 		-0.2515
v -45.5135 		52.883 		-0.2515
v -45.1305 		50.958 		-0.2515
v -45.0025 		49 		-0.2515
v -57.145 		63.838 		-0.2515
v -45.1305 		47.042 		-0.2515
v -45.5135 		45.117 		-0.2515
v -46.1435 		43.259 		-0.2515
v -56.1215 		63.491 		-0.2515
v -54.2635 		62.861 		-0.2515
v -52.5035 		61.993 		-0.2515
v -50.8715 		60.902 		-0.2515
v -49.3965 		59.608 		-0.2515
v -45.0025 		36.7212 		-0.2515
# 515 vertices

g group_1_4634441

usemtl color_4634441
s 0

f 519 	747 	543
f 747 	547 	545
f 545 	543 	747
f 553 	748 	554
f 551 	748 	553
f 554 	748 	556
f 556 	748 	557
f 557 	748 	559
f 608 	613 	748
f 559 	748 	613
f 613 	614 	559
f 562 	559 	614
f 566 	565 	618
f 568 	567 	618
f 567 	566 	618
f 575 	624 	574
f 576 	741 	577
f 577 	741 	578
f 618 	620 	568
f 581 	623 	582
f 584 	583 	747
f 585 	584 	747
f 585 	747 	519
f 588 	601 	589
f 593 	592 	747
f 595 	594 	747
f 597 	596 	747
f 583 	597 	747
f 591 	590 	601
f 590 	589 	601
f 587 	742 	586
f 578 	741 	587
f 596 	595 	747
f 594 	593 	747
f 592 	591 	747
f 601 	747 	591
f 598 	601 	600
f 600 	588 	742
f 601 	588 	600
f 574 	624 	576
f 582 	624 	575
f 586 	742 	588
f 626 	601 	599
f 598 	599 	601
f 604 	605 	606
f 608 	748 	605
f 609 	611 	605
f 606 	605 	611
f 624 	582 	623
f 580 	579 	623
f 728 	716 	731
f 717 	731 	716
f 731 	717 	719
f 731 	719 	733
f 721 	734 	719
f 733 	719 	734
f 734 	721 	722
f 734 	722 	735
f 724 	737 	722
f 735 	722 	737
f 737 	724 	725
f 737 	725 	738
f 742 	587 	741
f 741 	576 	624
f 620 	622 	571
f 572 	571 	622
f 573 	572 	622
f 622 	623 	573
f 579 	573 	623
f 581 	580 	623
f 571 	570 	620
f 570 	569 	620
f 569 	568 	620
f 616 	618 	565
f 565 	564 	616
f 564 	563 	616
f 563 	562 	616
f 614 	616 	562
f 609 	605 	748
f 747 	748 	549
f 551 	549 	748
f 747 	549 	548
f 548 	547 	747
f 647 	819 	645
f 711 	601 	646
f 648 	646 	739
f 651 	648 	739
f 738 	725 	714
f 738 	714 	715
f 755 	715 	726
f 714 	726 	715
f 755 	726 	727
f 755 	727 	756
f 757 	758 	759
f 760 	759 	758
f 654 	653 	602
f 660 	658 	728
f 662 	660 	728
f 669 	733 	671
f 667 	731 	669
f 671 	733 	673
f 673 	733 	675
f 675 	734 	677
f 683 	735 	685
f 578 	531 	577
f 686 	737 	687
f 689 	698 	830
f 690 	688 	830
f 691 	690 	830
f 691 	830 	692
f 687 	758 	693
f 694 	693 	758
f 696 	695 	758
f 697 	696 	758
f 698 	697 	758
f 700 	699 	830
f 701 	700 	830
f 601 	703 	830
f 702 	830 	703
f 704 	601 	705
f 707 	601 	708
f 709 	601 	710
f 626 	739 	601
f 710 	601 	711
f 702 	701 	830
f 699 	713 	830
f 712 	830 	713
f 709 	708 	601
f 601 	707 	706
f 601 	706 	705
f 704 	703 	601
f 712 	692 	830
f 688 	689 	830
f 758 	830 	698
f 738 	833 	687
f 755 	833 	715
f 831 	833 	832
f 735 	681 	734
f 695 	694 	758
f 685 	735 	686
f 681 	735 	683
f 679 	734 	681
f 677 	734 	679
f 737 	686 	735
f 738 	687 	737
f 832 	833 	755
f 758 	687 	833
f 667 	664 	731
f 734 	675 	733
f 525 	571 	572
f 860 	752 	751
f 715 	833 	738
f 755 	843 	832
f 843 	755 	756
f 733 	669 	731
f 728 	655 	602
f 664 	662 	728
f 728 	731 	664
f 658 	655 	728
f 654 	602 	655
f 653 	651 	602
f 739 	602 	651
f 739 	646 	601
f 607 	909 	610
f 603 	652 	909
f 615 	909 	617
f 617 	909 	619
f 625 	621 	959
f 621 	619 	959
f 627 	625 	959
f 628 	627 	959
f 629 	628 	959
f 630 	959 	631
f 579 	533 	532
f 632 	959 	633
f 633 	959 	634
f 949 	950 	959
f 634 	959 	950
f 635 	634 	950
f 950 	951 	635
f 636 	635 	951
f 951 	952 	637
f 644 	643 	748
f 650 	821 	820
f 645 	644 	748
f 748 	909 	647
f 647 	645 	748
f 650 	649 	909
f 846 	723 	845
f 657 	934 	656
f 656 	935 	659
f 659 	935 	661
f 661 	935 	663
f 943 	748 	942
f 665 	936 	666
f 670 	668 	748
f 672 	670 	748
f 668 	834 	829
f 748 	643 	676
f 640 	639 	952
f 680 	933 	682
f 663 	936 	665
f 684 	933 	657
f 936 	663 	935
f 682 	933 	684
f 649 	647 	909
f 676 	674 	748
f 674 	672 	748
f 666 	936 	668
f 936 	748 	668
f 942 	748 	936
f 609 	748 	943
f 845 	945 	846
f 844 	945 	845
f 846 	946 	847
f 847 	946 	848
f 802 	628 	629
f 633 	807 	806
f 849 	850 	851
f 848 	850 	849
f 574 	527 	575
f 526 	573 	532
f 581 	535 	534
f 575 	528 	535
f 774 	876 	877
f 684 	824 	842
f 588 	542 	541
f 851 	850 	852
f 853 	852 	850
f 854 	853 	850
f 855 	854 	850
f 856 	855 	850
f 760 	859 	858
f 860 	859 	760
f 860 	760 	861
f 862 	861 	760
f 864 	862 	760
f 864 	760 	865
f 866 	760 	867
f 868 	760 	869
f 899 	897 	956
f 872 	944 	873
f 873 	944 	874
f 539 	540 	586
f 539 	586 	588
f 571 	524 	523
f 588 	589 	542
f 524 	571 	525
f 530 	577 	531
f 587 	540 	578
f 743 	853 	854
f 598 	879 	599
f 878 	599 	879
f 600 	880 	879
f 600 	879 	598
f 716 	602 	881
f 884 	608 	882
f 885 	608 	884
f 875 	758 	876
f 888 	618 	887
f 592 	552 	550
f 891 	618 	888
f 596 	560 	558
f 560 	596 	561
f 578 	540 	531
f 538 	585 	519
f 839 	678 	680
f 896 	894 	955
f 897 	896 	955
f 955 	956 	897
f 716 	728 	602
f 604 	883 	605
f 882 	605 	883
f 605 	882 	608
f 885 	613 	608
f 886 	614 	613
f 886 	613 	885
f 614 	886 	616
f 887 	616 	886
f 618 	616 	887
f 891 	620 	618
f 893 	622 	620
f 893 	620 	891
f 622 	893 	623
f 895 	623 	893
f 898 	624 	623
f 898 	623 	895
f 624 	898 	903
f 564 	988 	986
f 806 	632 	633
f 878 	901 	599
f 626 	599 	901
f 565 	517 	564
f 626 	901 	739
f 902 	739 	901
f 739 	902 	602
f 881 	602 	902
f 903 	741 	624
f 905 	742 	741
f 905 	741 	903
f 880 	600 	905
f 742 	905 	600
f 908 	909 	910
f 748 	910 	909
f 639 	812 	637
f 830 	758 	911
f 911 	758 	757
f 644 	817 	816
f 573 	526 	525
f 576 	529 	574
f 577 	530 	529
f 656 	823 	824
f 579 	532 	573
f 581 	534 	533
f 582 	535 	581
f 535 	582 	575
f 584 	585 	537
f 906 	760 	907
f 539 	588 	541
f 544 	542 	590
f 760 	758 	925
f 924 	760 	925
f 544 	590 	546
f 877 	758 	889
f 876 	758 	877
f 928 	758 	875
f 927 	758 	928
f 546 	592 	550
f 954 	955 	833
f 953 	954 	833
f 833 	955 	894
f 892 	833 	894
f 890 	833 	892
f 889 	758 	890
f 832 	953 	833
f 832 	833 	831
f 927 	925 	758
f 924 	907 	760
f 863 	760 	906
f 869 	760 	863
f 596 	597 	561
f 935 	656 	934
f 933 	678 	932
f 795 	615 	796
f 617 	797 	796
f 621 	798 	797
f 984 	559 	562
f 800 	627 	801
f 563 	986 	562
f 984 	562 	986
f 628 	802 	801
f 986 	563 	564
f 988 	564 	517
f 566 	518 	565
f 517 	565 	518
f 566 	567 	518
f 520 	518 	567
f 567 	568 	520
f 521 	520 	568
f 569 	522 	568
f 521 	568 	522
f 523 	522 	570
f 569 	570 	522
f 523 	570 	571
f 525 	572 	573
f 528 	575 	527
f 527 	574 	529
f 576 	577 	529
f 812 	639 	813
f 813 	640 	641
f 580 	533 	579
f 580 	581 	533
f 818 	645 	819
f 647 	820 	819
f 597 	583 	561
f 584 	537 	583
f 536 	583 	537
f 650 	822 	821
f 538 	537 	585
f 587 	586 	540
f 542 	589 	590
f 546 	590 	591
f 591 	592 	546
f 593 	552 	592
f 826 	659 	661
f 593 	594 	552
f 555 	552 	594
f 555 	594 	558
f 595 	558 	594
f 826 	661 	827
f 558 	595 	596
f 536 	561 	583
f 966 	519 	543
f 966 	543 	545
f 947 	850 	946
f 642 	641 	932
f 974 	549 	551
f 841 	682 	842
f 638 	642 	932
f 952 	932 	641
f 974 	551 	553
f 611 	609 	943
f 606 	943 	604
f 978 	553 	554
f 836 	672 	674
f 606 	611 	943
f 554 	556 	978
f 979 	978 	556
f 756 	953 	843
f 979 	556 	557
f 792 	791 	607
f 904 	900 	956
f 843 	953 	832
f 956 	957 	904
f 792 	607 	793
f 957 	944 	870
f 872 	871 	944
f 900 	899 	956
f 610 	612 	793
f 678 	839 	811
f 945 	874 	944
f 871 	870 	944
f 946 	846 	945
f 948 	850 	947
f 870 	904 	957
f 615 	795 	794
f 617 	796 	615
f 619 	797 	617
f 949 	850 	948
f 641 	640 	952
f 934 	657 	933
f 638 	932 	678
f 678 	933 	680
f 639 	637 	952
f 848 	946 	850
f 874 	945 	844
f 619 	621 	797
f 798 	621 	799
f 833 	890 	758
f 868 	867 	760
f 866 	865 	760
f 857 	760 	858
f 856 	850 	857
f 760 	857 	850
f 637 	636 	951
f 850 	949 	959
f 632 	631 	959
f 630 	629 	959
f 760 	850 	959
f 866 	764 	865
f 627 	800 	799
f 628 	801 	627
f 612 	909 	615
f 607 	603 	909
f 652 	650 	909
f 612 	610 	909
f 959 	619 	909
f 630 	803 	802
f 630 	804 	803
f 632 	805 	804
f 967 	1006 	966
f 632 	806 	805
f 636 	809 	808
f 978 	910 	975
f 636 	810 	809
f 981 	910 	979
f 984 	886 	982
f 986 	887 	984
f 641 	814 	813
f 988 	887 	986
f 815 	814 	642
f 641 	642 	814
f 517 	887 	988
f 642 	811 	815
f 518 	1005 	517
f 676 	816 	838
f 521 	1005 	520
f 818 	817 	645
f 644 	645 	817
f 895 	1005 	525
f 525 	526 	895
f 526 	532 	895
f 530 	531 	903
f 905 	903 	540
f 540 	539 	905
f 539 	541 	905
f 880 	905 	541
f 534 	535 	895
f 528 	527 	898
f 825 	823 	659
f 656 	659 	823
f 825 	659 	826
f 527 	529 	898
f 903 	898 	529
f 533 	534 	895
f 529 	530 	903
f 789 	927 	928
f 665 	828 	827
f 537 	1006 	536
f 665 	829 	828
f 538 	1006 	537
f 835 	834 	670
f 668 	670 	834
f 1006 	538 	964
f 964 	966 	1006
f 968 	1006 	967
f 835 	670 	836
f 541 	1001 	880
f 674 	837 	836
f 542 	1001 	541
f 676 	838 	674
f 837 	674 	838
f 544 	1001 	542
f 546 	1001 	544
f 879 	880 	1001
f 550 	1006 	546
f 552 	1006 	550
f 680 	840 	839
f 680 	682 	840
f 841 	840 	682
f 558 	1006 	555
f 684 	842 	682
f 560 	1006 	558
f 561 	1006 	560
f 536 	1006 	561
f 1001 	546 	1006
f 555 	1006 	552
f 697 	980 	977
f 879 	1001 	878
f 535 	528 	898
f 531 	540 	903
f 911 	990 	1001
f 996 	997 	1001
f 751 	858 	859
f 751 	859 	860
f 1002 	882 	883
f 1003 	910 	882
f 1002 	1004 	882
f 1003 	882 	1004
f 884 	910 	885
f 887 	1005 	888
f 891 	888 	1005
f 893 	891 	1005
f 522 	523 	1005
f 802 	629 	630
f 893 	1005 	895
f 878 	1001 	901
f 881 	902 	1001
f 901 	1001 	902
f 898 	895 	535
f 520 	1005 	518
f 522 	1005 	521
f 524 	525 	1005
f 532 	533 	895
f 523 	524 	1005
f 887 	517 	1005
f 886 	984 	887
f 910 	982 	885
f 886 	885 	982
f 884 	882 	910
f 968 	971 	1006
f 971 	972 	1006
f 974 	910 	972
f 1006 	972 	910
f 974 	975 	910
f 978 	979 	910
f 981 	982 	910
f 914 	881 	913
f 917 	918 	716
f 717 	716 	921
f 920 	921 	716
f 922 	923 	717
f 774 	875 	876
f 719 	717 	923
f 923 	926 	719
f 921 	922 	717
f 940 	941 	722
f 926 	929 	719
f 724 	722 	941
f 725 	724 	958
f 640 	813 	639
f 726 	714 	757
f 969 	757 	958
f 963 	911 	962
f 965 	911 	963
f 960 	962 	911
f 789 	925 	927
f 999 	911 	965
f 970 	757 	969
f 973 	757 	970
f 976 	757 	973
f 977 	980 	757
f 714 	725 	757
f 911 	757 	980
f 961 	911 	980
f 917 	916 	655
f 917 	655 	918
f 743 	852 	853
f 820 	649 	650
f 990 	702 	703
f 990 	911 	989
f 675 	930 	929
f 991 	1001 	990
f 931 	930 	675
f 939 	938 	683
f 998 	1001 	997
f 940 	939 	683
f 994 	995 	1001
f 912 	1001 	998
f 913 	881 	912
f 1000 	911 	999
f 999 	712 	713
f 871 	872 	770
f 770 	872 	873
f 688 	960 	961
f 829 	665 	666
f 962 	960 	688
f 829 	666 	668
f 694 	970 	969
f 777 	889 	890
f 973 	970 	694
f 777 	890 	892
f 657 	824 	684
f 860 	861 	752
f 652 	603 	822
f 923 	922 	669
f 985 	911 	983
f 1000 	983 	911
f 987 	911 	985
f 699 	983 	713
f 987 	989 	911
f 992 	1001 	991
f 993 	1001 	992
f 994 	1001 	993
f 996 	1001 	995
f 983 	699 	985
f 976 	977 	757
f 961 	960 	911
f 1007 	1008 	726
f 1008 	1022 	726
f 865 	764 	763
f 989 	702 	990
f 679 	681 	937
f 722 	721 	938
f 931 	937 	721
f 930 	931 	721
f 938 	939 	722
f 939 	940 	722
f 941 	958 	724
f 958 	757 	725
f 1007 	726 	757
f 791 	603 	607
f 871 	769 	768
f 610 	793 	607
f 794 	793 	612
f 794 	612 	615
f 961 	689 	688
f 710 	998 	997
f 916 	917 	881
f 716 	881 	917
f 1000 	999 	713
f 929 	930 	719
f 1000 	713 	983
f 937 	938 	721
f 721 	719 	930
f 1022 	727 	726
f 977 	976 	697
f 915 	881 	914
f 1001 	912 	881
f 915 	916 	881
f 914 	913 	651
f 648 	651 	913
f 918 	919 	716
f 919 	920 	716
f 914 	651 	915
f 794 	795 	908
f 799 	621 	625
f 799 	625 	627
f 1030 	957 	1029
f 702 	989 	987
f 1016 	957 	1030
f 952 	1025 	932
f 932 	1009 	1010
f 932 	1010 	933
f 631 	804 	630
f 1011 	934 	1010
f 933 	1010 	934
f 804 	631 	632
f 1012 	935 	934
f 1012 	934 	1011
f 935 	1012 	936
f 1013 	936 	1012
f 634 	807 	633
f 1014 	942 	936
f 1014 	936 	1013
f 942 	1014 	943
f 1015 	943 	1014
f 807 	634 	808
f 635 	808 	634
f 1015 	883 	943
f 635 	636 	808
f 810 	636 	637
f 710 	997 	996
f 944 	1016 	1017
f 944 	1017 	945
f 638 	678 	811
f 1018 	946 	1017
f 945 	1017 	946
f 810 	637 	812
f 946 	1018 	1019
f 946 	1019 	947
f 1020 	948 	1019
f 947 	1019 	948
f 712 	999 	965
f 948 	1020 	1021
f 948 	1021 	949
f 638 	811 	642
f 1023 	950 	1021
f 949 	1021 	950
f 950 	1023 	1024
f 950 	1024 	951
f 951 	1024 	1025
f 951 	1025 	952
f 816 	643 	644
f 1009 	932 	1025
f 604 	943 	883
f 649 	820 	647
f 953 	756 	1026
f 727 	1026 	756
f 915 	651 	653
f 1027 	954 	1026
f 953 	1026 	954
f 954 	1027 	1028
f 954 	1028 	955
f 915 	653 	916
f 652 	822 	650
f 1029 	956 	1028
f 955 	1028 	956
f 956 	1029 	957
f 791 	822 	603
f 1016 	944 	957
f 824 	657 	656
f 827 	661 	663
f 921 	664 	922
f 663 	665 	827
f 836 	670 	672
f 762 	864 	763
f 643 	816 	676
f 796 	908 	795
f 871 	770 	769
f 797 	908 	796
f 793 	794 	908
f 797 	798 	908
f 958 	941 	687
f 800 	908 	799
f 798 	799 	908
f 801 	908 	800
f 802 	908 	801
f 908 	802 	803
f 805 	745 	804
f 806 	744 	805
f 808 	1023 	807
f 807 	1023 	806
f 810 	1024 	809
f 809 	1024 	808
f 812 	1031 	810
f 958 	687 	969
f 814 	1031 	813
f 815 	1031 	814
f 811 	1031 	815
f 818 	910 	817
f 817 	910 	816
f 819 	910 	818
f 820 	908 	819
f 821 	908 	820
f 900 	904 	783
f 822 	908 	821
f 1003 	1015 	910
f 791 	908 	822
f 904 	768 	784
f 825 	826 	1012
f 827 	828 	1013
f 828 	829 	1013
f 907 	786 	785
f 829 	834 	1013
f 1013 	834 	910
f 1013 	1012 	827
f 1002 	1015 	1004
f 836 	910 	835
f 835 	910 	834
f 925 	789 	788
f 1015 	1014 	910
f 838 	910 	837
f 816 	910 	838
f 837 	910 	836
f 773 	790 	928
f 990 	703 	991
f 718 	844 	720
f 840 	1031 	839
f 841 	842 	1031
f 845 	723 	720
f 824 	823 	1011
f 848 	730 	847
f 1014 	1013 	910
f 1004 	1015 	1003
f 736 	740 	1019
f 1020 	1019 	740
f 732 	736 	1019
f 740 	743 	1020
f 744 	806 	1021
f 1024 	810 	1031
f 711 	912 	998
f 745 	805 	744
f 746 	804 	745
f 1021 	1020 	744
f 743 	744 	1020
f 749 	804 	746
f 751 	759 	750
f 759 	752 	753
f 754 	759 	753
f 759 	751 	752
f 763 	759 	762
f 764 	759 	763
f 759 	754 	762
f 765 	759 	764
f 766 	759 	765
f 767 	759 	766
f 761 	759 	767
f 769 	1016 	768
f 770 	1016 	769
f 667 	922 	664
f 772 	1016 	771
f 667 	669 	922
f 923 	669 	926
f 868 	767 	766
f 775 	757 	774
f 773 	774 	757
f 776 	757 	775
f 777 	757 	776
f 778 	757 	777
f 931 	675 	677
f 780 	781 	1028
f 781 	782 	1029
f 1030 	1029 	784
f 784 	768 	1030
f 1016 	1030 	768
f 783 	784 	1029
f 786 	759 	785
f 875 	774 	773
f 789 	757 	788
f 759 	788 	757
f 790 	773 	757
f 790 	757 	789
f 776 	889 	777
f 779 	1028 	778
f 782 	783 	1029
f 1022 	1008 	1026
f 1007 	1026 	1008
f 1007 	757 	1026
f 759 	761 	785
f 786 	787 	759
f 787 	788 	759
f 1010 	1009 	1031
f 1011 	1010 	1031
f 1031 	842 	1011
f 1012 	1011 	823
f 842 	824 	1011
f 883 	1015 	1002
f 823 	825 	1012
f 976 	696 	697
f 772 	718 	1017
f 1017 	1016 	772
f 718 	720 	1017
f 720 	723 	1017
f 1018 	1017 	723
f 1023 	808 	1024
f 1021 	806 	1023
f 787 	924 	788
f 1009 	1025 	1031
f 1024 	1031 	1025
f 826 	827 	1012
f 1022 	1026 	727
f 1027 	757 	1028
f 1026 	757 	1027
f 757 	778 	1028
f 1029 	1028 	781
f 779 	780 	1028
f 992 	705 	993
f 1019 	1018 	732
f 730 	732 	1018
f 729 	730 	1018
f 723 	729 	1018
f 770 	771 	1016
f 813 	1031 	812
f 811 	839 	1031
f 841 	1031 	840
f 732 	730 	849
f 706 	707 	993
f 804 	759 	803
f 759 	804 	749
f 750 	759 	749
f 803 	759 	908
f 910 	819 	908
f 792 	908 	791
f 793 	908 	792
f 959 	759 	760
f 740 	736 	851
f 759 	959 	908
f 909 	908 	959
f 1006 	747 	1001
f 1001 	601 	911
f 830 	911 	601
f 601 	1001 	747
f 1006 	910 	748
f 1006 	748 	747
f 646 	912 	711
f 538 	519 	964
f 854 	855 	744
f 964 	519 	966
f 966 	545 	967
f 547 	968 	545
f 967 	545 	968
f 548 	971 	547
f 968 	547 	971
f 858 	750 	749
f 646 	648 	912
f 971 	548 	549
f 971 	549 	972
f 858 	751 	750
f 972 	549 	974
f 553 	975 	974
f 553 	978 	975
f 979 	557 	981
f 918 	655 	658
f 559 	982 	981
f 559 	981 	557
f 918 	658 	919
f 906 	785 	863
f 761 	863 	785
f 984 	982 	559
f 867 	765 	764
f 868 	766 	765
f 868 	765 	867
f 869 	767 	868
f 863 	761 	767
f 863 	767 	869
f 926 	669 	671
f 673 	929 	926
f 870 	871 	768
f 929 	673 	675
f 873 	771 	770
f 874 	772 	873
f 771 	873 	772
f 844 	718 	874
f 928 	875 	773
f 877 	775 	774
f 775 	877 	889
f 776 	775 	889
f 892 	778 	777
f 894 	779 	892
f 778 	892 	779
f 962 	688 	690
f 894 	896 	779
f 780 	779 	896
f 963 	962 	690
f 897 	781 	896
f 780 	896 	781
f 963 	691 	965
f 782 	781 	899
f 897 	899 	781
f 782 	899 	783
f 900 	783 	899
f 784 	783 	904
f 870 	768 	904
f 906 	907 	785
f 924 	787 	786
f 924 	786 	907
f 980 	697 	698
f 925 	788 	924
f 698 	689 	980
f 961 	980 	689
f 928 	790 	789
f 772 	874 	718
f 845 	720 	844
f 723 	846 	847
f 729 	723 	847
f 729 	847 	730
f 991 	703 	704
f 848 	849 	730
f 991 	704 	992
f 705 	992 	704
f 706 	993 	705
f 732 	849 	736
f 851 	736 	849
f 994 	993 	707
f 852 	740 	851
f 994 	707 	995
f 708 	995 	707
f 852 	743 	740
f 709 	996 	708
f 995 	708 	996
f 854 	744 	743
f 709 	710 	996
f 745 	744 	855
f 998 	710 	711
f 745 	855 	746
f 856 	746 	855
f 749 	746 	857
f 856 	857 	746
f 749 	857 	858
f 648 	913 	912
f 753 	752 	861
f 753 	861 	754
f 862 	754 	861
f 916 	653 	654
f 916 	654 	655
f 864 	762 	754
f 864 	754 	862
f 865 	763 	864
f 658 	660 	919
f 920 	919 	662
f 660 	662 	919
f 867 	764 	866
f 662 	664 	920
f 921 	920 	664
f 926 	671 	673
f 679 	937 	677
f 931 	677 	937
f 938 	937 	681
f 938 	681 	683
f 940 	683 	685
f 686 	941 	685
f 940 	685 	941
f 941 	686 	687
f 693 	969 	687
f 691 	963 	690
f 692 	965 	691
f 692 	712 	965
f 693 	694 	969
f 973 	694 	695
f 976 	973 	696
f 695 	696 	973
f 985 	699 	700
f 985 	700 	987
f 701 	987 	700
f 987 	701 	702
# 1046 faces

 #end of obj_1

